<svg width="55" height="64" viewBox="0 0 55 64" fill="none" xmlns="http://www.w3.org/2000/svg">
<path d="M8.12179 52.8174C3.54906 49.1054 1.13086 43.7652 1.13086 37.3869V7.0487C8.35533 3.25456 17.094 1.33508 27.1209 1.33508C37.1477 1.33508 45.8864 3.26203 53.1109 7.05617V37.3869C53.1109 43.7652 50.6927 49.1054 46.1199 52.8249C41.9389 56.2232 28.6501 62.004 27.1209 62.6613C25.5916 62.004 12.3028 56.2232 8.12179 52.8174Z" fill="#330000"/>
<path d="M51.7465 6.63228C48.4017 6.32606 44.9213 6.1244 41.3731 6.1244C28.2274 6.1244 14.1401 8.92519 2.49353 19.5159V37.6203C2.49353 43.5206 4.69327 48.4425 8.87427 51.8184C12.5656 54.7985 23.9183 59.8922 27.12 61.2963C30.284 59.9146 41.6066 54.8881 45.3657 51.8184C49.5693 48.3828 51.7465 43.5729 51.7465 37.6203V6.63228ZM4.89667 35.7381V21.0321H9.61253V35.9473C9.61253 37.2767 9.93647 39.241 12.0985 39.241C13.0553 39.241 13.8161 39.0169 14.3284 38.6659V21.0321H19.0367V41.3248C17.2363 42.5347 14.8181 43.2069 11.9253 43.2069C7.26967 43.2069 4.89667 40.6899 4.89667 35.7381ZM26.1859 52.7072H21.47V22.2196C23.1801 21.1217 25.2593 20.5541 27.8281 20.5541C33.4631 20.5541 36.5517 24.7889 36.5517 31.6079C36.5517 38.4418 33.5459 43.1173 28.3103 43.1173C27.346 43.1173 26.6605 42.9903 26.1859 42.8484V52.7072ZM26.1859 39.0393C26.5249 39.1663 27.0748 39.3231 27.7151 39.3231C30.4271 39.3231 31.7304 36.851 31.7304 31.7423C31.7304 26.4992 30.5929 24.3333 27.8583 24.3333C27.2179 24.3333 26.5701 24.4827 26.1859 24.6694V39.0393ZM37.6215 26.6561C37.5989 22.8769 40.8457 20.6512 43.9495 20.5616C46.5409 20.4794 48.2962 21.4503 49.1249 22.0777V26.1482C48.138 25.1474 46.5485 24.2437 44.8987 24.2287C43.5653 24.2138 42.1716 24.8038 42.1264 26.4619C42.0812 28.1648 43.4673 28.837 45.2301 29.8602C49.1701 32.1606 49.9309 34.222 49.8405 36.9481C49.7501 39.9356 47.6709 43.2069 43.0078 43.2069C41.1395 43.2069 39.3014 42.6318 37.8173 41.758V37.4485C39.0227 38.5165 40.8231 39.3381 42.3298 39.353C44.0625 39.3605 45.2 38.3746 45.1623 36.7464C45.1247 35.2751 44.2885 34.4834 42.2168 33.2734C38.3296 31.0029 37.629 29.1432 37.6215 26.6561ZM7.29227 53.7304C2.52367 49.8467 0 44.2749 0 37.6203V5.96756C7.53333 2.0091 16.6562 0 27.12 0C37.5838 0 46.7067 2.0091 54.24 5.96756V37.6203C54.24 44.2749 51.7163 49.8467 46.9477 53.7304C42.5859 57.2781 28.7095 63.3054 27.12 63.9925C25.5305 63.3054 11.6541 57.2781 7.29227 53.7304ZM44.4316 60.3627V63.1112H44.9288V61.9685H44.9966C45.0343 62.0208 45.7499 63.1112 45.7499 63.1112H46.3526C46.3526 63.1112 45.5917 62.0133 45.5164 61.9013C45.8855 61.8116 46.1266 61.5502 46.1266 61.1693C46.1266 60.781 45.8855 60.3627 45.2075 60.3627H44.4316ZM45.1623 60.766C45.5842 60.766 45.6445 60.9751 45.6445 61.1544C45.6445 61.4158 45.5315 61.5876 44.9966 61.5876H44.9363V60.7735H45.1623V60.766ZM47.1135 61.7444C47.1135 62.7676 46.2773 63.5967 45.2377 63.5967C44.2056 63.5967 43.3619 62.7602 43.3619 61.7444C43.3619 60.7212 44.2056 59.8772 45.2377 59.8772C46.2773 59.8772 47.1135 60.7212 47.1135 61.7444ZM45.2377 59.4814C43.9871 59.4814 42.9626 60.4971 42.9626 61.7444C42.9626 62.9917 43.9796 64 45.2377 64C46.4957 64 47.5203 62.9917 47.5203 61.7444C47.5203 60.4971 46.4957 59.4814 45.2377 59.4814Z" fill="#FFBE00"/>
</svg>
